:version 1.10
:name ASF
:units
  mass 1
  length 1
  angle deg
:documentation
  ASF file generated by Kaydara
:root
  axis xyz
  order  tx ty tz rx ry rz
  position 0 0 0
  orientation 0 0 0
:bonedata
  begin
    id 1
    name RightUpLegDummy
    direction -1 2.30186e-007 8.31532e-007
    length 4.04083
    axis 0 0 0 xyz
  end
  begin
    id 2
    name RightUpLeg
    direction -0.000919234 -0.999985 0.00544864
    length 17.4221
    axis -3.80308 -0.00076134 -0.0523649 xyz
    dof rx ry rz
  end
  begin
    id 3
    name RightLeg
    direction -0.000919271 -0.999984 -0.00555045
    length 17.1239
    axis 4.00314 0.0181274 -0.183583 xyz
    dof rx ry rz
  end
  begin
    id 4
    name RightFoot
    direction -2.57843e-005 -4.04509e-007 1
    length 6.72091
    axis 8.18909e-005 -0.122003 -0.403008 xyz
    dof rx ry rz
  end
  begin
    id 5
    name RightToes
    direction 0.00116825 -0.014069 0.9999
    length 3.85082
    axis 0.000514414 0.540638 -0.356797 xyz
    dof rx ry rz
  end
  begin
    id 6
    name SpineDummy
    direction 0.0168869 0.966876 -0.254689
    length 6.99894
    axis 0 0 0 xyz
  end
  begin
    id 7
    name Spine
    direction -0.0132008 0.999903 0.00446247
    length 11.1999
    axis -0.00148109 0.00725429 0.756411 xyz
    dof rx ry rz
  end
  begin
    id 8
    name Spine1
    direction 0 0 0
    length 0
    axis -0.000934958 0.0245693 1.46543 xyz
    dof rx ry rz
  end
  begin
    id 9
    name HEadDummy
    direction -0.0255732 0.999672 0.00128215
    length 3.43865
    axis -0.000934958 0.0245693 1.46543 xyz
  end
  begin
    id 10
    name HEad
    direction -0.0472656 0.980052 0.19304
    length 5.12695
    axis -0.000934954 0.0245693 1.46543 xyz
    dof rx ry rz
  end
  begin
    id 11
    name LeftShoulder1Dummy
    direction 0.953098 0.301717 -0.023914
    length 3.68488
    axis -0.000934958 0.0245693 1.46543 xyz
  end
  begin
    id 12
    name LeftShoulder1
    direction 0.962466 0.271167 0.0112566
    length 3.13809
    axis -0.000934958 0.0245693 1.46543 xyz
    dof rx ry rz
  end
  begin
    id 13
    name LeftArm
    direction 0.999943 0.00455037 -0.00961766
    length 11.3419
    axis -23.1648 0.685459 1.22814 xyz
    dof rx ry rz
  end
  begin
    id 14
    name LeftForeArm
    direction 0.999332 0.0131969 0.0340885
    length 8.70632
    axis -9.90633 0.618216 0.0826942 xyz
    dof rx ry rz
  end
  begin
    id 15
    name LeftHand
    direction 0.994373 -0.0366703 0.0993905
    length 5.32135
    axis 0.00675269 0.680415 0.445699 xyz
    dof rx ry rz
  end
  begin
    id 16
    name RightShoulderDummy
    direction -0.967298 0.252589 -0.0230903
    length 3.68488
    axis -0.000934958 0.0245693 1.46543 xyz
  end
  begin
    id 17
    name RightShoulder
    direction -0.975062 0.221602 0.0120823
    length 3.13809
    axis 0.216257 0.0246515 1.45863 xyz
    dof rx ry rz
  end
  begin
    id 18
    name RightArm
    direction -0.99886 -0.00851186 -0.0469687
    length 10.3947
    axis -23.196 0.23503 -0.532632 xyz
    dof rx ry rz
  end
  begin
    id 19
    name RightForeArm
    direction -0.99909 0.00114866 0.0426317
    length 8.68355
    axis -9.91764 -0.134943 0.610517 xyz
    dof rx ry rz
  end
  begin
    id 20
    name RightHand
    direction -0.992888 -0.0489538 0.10852
    length 5.28593
    axis -0.00275396 -0.197403 0.246414 xyz
    dof rx ry rz
  end
  begin
    id 21
    name LeftUpLegDummy
    direction 1 -2.30186e-007 -8.31532e-007
    length 4.04083
    axis 0 0 0 xyz
  end
  begin
    id 22
    name LeftUpLeg
    direction -0.000920097 -1 2.79241e-006
    length 17.4221
    axis -3.48782 0.00143434 -0.0532288 xyz
    dof rx ry rz
  end
  begin
    id 23
    name LeftLeg
    direction -0.000920097 -1 2.7912e-006
    length 17.1239
    axis 3.68162 -0.00806512 -0.0529896 xyz
    dof rx ry rz
  end
  begin
    id 24
    name LeftFoot
    direction -2.57845e-005 -3.987e-007 1
    length 6.72091
    axis 3.02372e-005 -0.00147829 -0.214229 xyz
    dof rx ry rz
  end
  begin
    id 25
    name LeftToes
    direction 0.00813577 -0.00488255 0.999955
    length 3.85048
    axis 3.89895e-005 -0.0014783 -0.214229 xyz
    dof rx ry rz
  end
:hierarchy
  begin
    root RightUpLegDummy SpineDummy LeftUpLegDummy
    RightUpLegDummy RightUpLeg
    RightUpLeg RightLeg
    RightLeg RightFoot
    RightFoot RightToes
    SpineDummy Spine
    Spine Spine1
    Spine1 HEadDummy LeftShoulder1Dummy RightShoulderDummy
    HEadDummy HEad
    LeftShoulder1Dummy LeftShoulder1
    LeftShoulder1 LeftArm
    LeftArm LeftForeArm
    LeftForeArm LeftHand
    RightShoulderDummy RightShoulder
    RightShoulder RightArm
    RightArm RightForeArm
    RightForeArm RightHand
    LeftUpLegDummy LeftUpLeg
    LeftUpLeg LeftLeg
    LeftLeg LeftFoot
    LeftFoot LeftToes
  end

:SAMPLES-PER-SECOND 30
:FULLY-SPECIFIED
:DEGREES
78
root  -10.8736 34.7935 -17.7664 -171.11 4.06395 -179.108
RightUpLeg  -6.34277 -10.7345 2.7893
RightLeg  2.66216 -1.08052 0.0199743
RightFoot  3.83489 0.0125717 0.0869927
RightToes  -20.4302 -0.0790336 -0.18344
Spine  -2.78058 -0.318944 -0.0636104
Spine1  -5.52248 -0.728902 0.795848
HEad  -61.0538 4.30941 8.33884
LeftShoulder1  -1.94126e-019 -3.10601e-018 -2.51263e-017
LeftArm  -11.9001 26.0816 -78.6396
LeftForeArm  33.4253 -16.0175 -2.67472
LeftHand  -0.391775 -1.02354 7.22864
RightShoulder  -4.96962e-017 0 -2.36833e-017
RightArm  -4.66174 -6.31659 56.8742
RightForeArm  54.0989 70.4662 25.9945
RightHand  -0.226892 -0.604225 -5.46952
LeftUpLeg  -11.3649 2.16182 3.88286
LeftLeg  14.2436 17.013 3.1207
LeftFoot  2.92842 -0.0232649 1.07173
LeftToes  -18.788 1.48347e-006 1.01831e-007
79
root  -10.6307 34.7464 -17.6493 -171.071 3.84967 -178.587
RightUpLeg  -6.07855 -11.3888 3.78006
RightLeg  1.81165 -0.638552 0.0213738
RightFoot  4.10049 0.0116978 0.106738
RightToes  -20.2209 -0.0788891 -0.183136
Spine  -2.89671 -0.488904 0.00323981
Spine1  -5.72681 -1.15368 0.99729
HEad  -60.0362 4.05335 8.31202
LeftShoulder1  -1.94126e-019 -3.10601e-018 -2.51263e-017
LeftArm  -11.284 26.1702 -78.1275
LeftForeArm  33.3698 -17.3063 -2.93955
LeftHand  -0.384209 -0.864121 7.25856
RightShoulder  -4.96962e-017 0 -2.36833e-017
RightArm  -4.84339 -1.21497 51.3391
RightForeArm  98.6125 80.6038 78.3332
RightHand  -0.175432 -1.03705 -4.57621
LeftUpLeg  -13.9114 0.0937693 4.5615
LeftLeg  19.54 19.5968 5.43984
LeftFoot  0.449419 -0.000630929 0.322513
LeftToes  -15.1407 1.48347e-006 1.01831e-007
80
root  -10.479 34.7177 -17.5855 -171.369 3.4624 -178.316
RightUpLeg  -5.68621 -12.111 4.26488
RightLeg  1.54633 -0.262411 0.0102185
RightFoot  4.12825 0.0107194 0.128119
RightToes  -20.2929 -0.0787838 -0.183176
Spine  -2.84031 -0.389001 0.0152481
Spine1  -5.59572 -1.01192 1.0521
HEad  -59.4846 3.13713 8.13517
LeftShoulder1  -1.94126e-019 -3.10601e-018 -2.51263e-017
LeftArm  -10.5416 25.4996 -78.1007
LeftForeArm  33.9114 -18.0451 -3.11973
LeftHand  -0.388847 -0.965637 7.23603
RightShoulder  -4.96962e-017 0 -2.36833e-017
RightArm  -8.84433 4.10997 45.1269
RightForeArm  156.646 74.3575 143.367
RightHand  -0.126937 -2.78981 -5.12312
LeftUpLeg  -16.2452 -0.271145 3.93254
LeftLeg  25.7817 20.3971 8.05148
LeftFoot  -2.91183 -0.0298803 -1.01404
LeftToes  -11.4243 1.48347e-006 1.01831e-007
81
root  -10.4052 34.7317 -17.5902 -171.727 3.47514 -178.333
RightUpLeg  -5.29475 -12.3723 4.26877
RightLeg  1.51082 0.0455105 -0.00131938
RightFoot  4.27263 0.00992325 0.146895
RightToes  -20.8611 -0.0787198 -0.183709
Spine  -2.73336 0.113609 -0.100331
Spine1  -5.36782 -0.0214548 0.78806
HEad  -59.2135 1.58903 8.47621
LeftShoulder1  -1.94126e-019 -3.10601e-018 -2.51263e-017
LeftArm  -10.2544 24.4712 -78.4347
LeftForeArm  34.8855 -18.6418 -3.27947
LeftHand  -0.406081 -1.14535 7.35857
RightShoulder  -4.96962e-017 0 -2.36833e-017
RightArm  -16.5139 8.77038 38.2415
RightForeArm  170.791 63.1249 160.561
RightHand  -0.203945 -1.20744 -5.54051
LeftUpLeg  -17.5752 0.255261 2.11602
LeftLeg  30.014 17.1601 8.3036
LeftFoot  -5.19009 -0.081319 -1.6325
LeftToes  -11.2491 1.48347e-006 1.01831e-007
82
root  -10.3416 34.7481 -17.6601 -171.773 3.77765 -178.271
RightUpLeg  -5.10454 -12.6646 4.35995
RightLeg  1.44588 0.664708 -0.0255892
RightFoot  4.39025 0.00723962 0.192497
RightToes  -21.0952 -0.0786988 -0.185569
Spine  -2.8254 0.804491 -0.230838
Spine1  -5.5572 1.4115 0.4505
HEad  -58.6827 0.0463457 9.09458
LeftShoulder1  -1.94126e-019 -3.10601e-018 -2.51263e-017
LeftArm  -9.82422 24.3515 -78.779
LeftForeArm  35.0545 -20.3328 -3.60151
LeftHand  -0.409193 -1.23241 7.32356
RightShoulder  -4.96962e-017 0 -2.36833e-017
RightArm  -27.763 12.6198 31.0659
RightForeArm  173.183 53.772 166.5
RightHand  -0.28659 -0.593069 -6.91219
LeftUpLeg  -17.2163 1.93205 0.0167875
LeftLeg  29.0163 13.1641 6.14965
LeftFoot  -4.30786 -0.0421453 -0.958975
LeftToes  -16.8772 1.48347e-006 1.01831e-007
83
root  -10.2789 34.7489 -17.756 -171.403 3.90309 -178.071
RightUpLeg  -5.31221 -13.7078 4.66186
RightLeg  1.4225 1.87851 -0.0737502
RightFoot  4.42241 0.00132533 0.283972
RightToes  -21.8673 -0.0787229 -0.191092
Spine  -3.13788 1.40409 -0.324014
Spine1  -6.21382 2.71721 0.156528
HEad  -57.6151 -1.0453 9.67186
LeftShoulder1  -1.94126e-019 -3.10601e-018 -2.51263e-017
LeftArm  -8.78911 25.0111 -79.0126
LeftForeArm  34.3475 -22.1864 -3.89288
LeftHand  -0.388797 -1.2347 6.96294
RightShoulder  -4.96962e-017 0 -2.36833e-017
RightArm  -41.5899 15.3933 23.6758
RightForeArm  172.651 47.4833 169.084
RightHand  -0.3362 -0.573899 -8.08877
LeftUpLeg  -15.2961 2.60791 -1.6723
LeftLeg  22.8929 11.5222 3.97825
LeftFoot  -4.22875 -0.0336161 -0.748964
LeftToes  -1.35335 1.48347e-006 1.01831e-007
84
root  -10.2229 34.7444 -17.8578 -170.956 3.34897 -177.914
RightUpLeg  -5.45961 -14.9306 4.96505
RightLeg  1.22368 2.72198 -0.116479
RightFoot  4.38523 -0.00251727 0.345416
RightToes  -22.3826 -0.078794 -0.195697
Spine  -3.54558 1.66404 -0.340953
Spine1  -7.06651 3.32904 0.0343944
HEad  -56.572 -1.76677 9.98812
LeftShoulder1  -1.94126e-019 -3.10601e-018 -2.51263e-017
LeftArm  -7.2684 25.7091 -79.3412
LeftForeArm  33.7908 -22.3649 -3.81991
LeftHand  -0.368352 -1.4619 6.40277
RightShoulder  -4.96962e-017 0 -2.36833e-017
RightArm  -55.1905 17.0125 16.9387
RightForeArm  171.34 44.9599 169.895
RightHand  -0.378206 -0.551346 -9.06511
LeftUpLeg  -12.4591 -2.13795 -1.85303
LeftLeg  16.486 17.7623 3.96391
LeftFoot  -4.00738 -0.0459817 -1.1527
LeftToes  1.46784 1.48347e-006 1.01831e-007
85
root  -10.1981 34.7941 -18.0071 -171.372 2.09229 -178.705
RightUpLeg  -4.53268 -15.6259 4.11843
RightLeg  0.776888 2.12395 -0.107564
RightFoot  4.28089 0.00119379 0.298369
RightToes  -22.1503 -0.0789143 -0.193882
Spine  -3.62919 1.5317 -0.667832
Spine1  -7.26536 3.08149 -0.62782
HEad  -55.8886 -2.48168 10.5528
LeftShoulder1  -1.94126e-019 -3.10601e-018 -2.51263e-017
LeftArm  -6.30569 25.2779 -79.5786
LeftForeArm  33.8409 -19.8983 -3.33251
LeftHand  -0.366056 -1.53493 6.30244
RightShoulder  -4.96962e-017 0 -2.36833e-017
RightArm  -64.7241 17.5313 12.3511
RightForeArm  170.631 44.4344 170.032
RightHand  -0.388653 -0.632694 -9.46763
LeftUpLeg  -9.44324 -6.93089 -2.41875
LeftLeg  11.6904 21.0699 2.89401
LeftFoot  -1.86646 -0.0118758 -0.567479
LeftToes  -1.61869 1.48347e-006 1.01831e-007
86
root  -10.1464 34.8704 -18.1282 -171.293 0.406647 -179.632
RightUpLeg  -4.05319 -15.8924 3.40458
RightLeg  0.202687 0.639763 -0.0388635
RightFoot  4.30519 0.00887217 0.193923
RightToes  -20.859 -0.0790856 -0.183693
Spine  -3.82974 1.23502 -1.32092
Spine1  -7.6849 2.45398 -1.88788
HEad  -55.8965 -3.72386 12.6168
LeftShoulder1  -1.94126e-019 -3.10601e-018 -2.51263e-017
LeftArm  -7.04611 24.8991 -79.0181
LeftForeArm  34.7438 -18.4772 -3.16217
LeftHand  -0.276247 -0.95912 5.17614
RightShoulder  -4.96962e-017 0 -2.36833e-017
RightArm  -70.3868 15.4118 10.291
RightForeArm  168.728 43.8365 170.11
RightHand  -0.364281 -0.838427 -9.25019
LeftUpLeg  -7.39118 -5.48687 -2.87195
LeftLeg  7.06607 17.4543 1.01521
LeftFoot  1.12406 -0.00341377 0.509595
LeftToes  -6.84784 1.48347e-006 1.01831e-007
87
root  -10.1025 34.9 -18.2098 -170.873 -0.869476 179.979
RightUpLeg  -4.24577 -16.5633 3.2727
RightLeg  0.155091 0.0428664 -0.00259814
RightFoot  4.03411 0.0122637 0.149868
RightToes  -19.6126 -0.0793096 -0.1737
Spine  -4.06522 1.07529 -1.81313
Spine1  -8.16028 2.09566 -2.83885
HEad  -56.7341 -5.15805 14.2607
LeftShoulder1  -1.94126e-019 -3.10601e-018 -2.51263e-017
LeftArm  -7.6362 25.0927 -78.288
LeftForeArm  34.5174 -18.7666 -3.25301
LeftHand  -0.369956 -1.32939 6.54607
RightShoulder  -4.96962e-017 0 -2.36833e-017
RightArm  -73.2924 12.0091 8.78732
RightForeArm  166.913 43.3829 170.145
RightHand  -0.336583 -1.03042 -8.89567
LeftUpLeg  -6.17927 -2.02401 -3.00535
LeftLeg  3.63931 12.6079 -0.00977816
LeftFoot  2.92097 -0.0164077 0.805095
LeftToes  -8.82763 1.48347e-006 1.01831e-007
88
root  -10.1057 34.8791 -18.2239 -170.555 -1.81708 179.971
RightUpLeg  -4.45417 -17.3754 3.41605
RightLeg  0.0861031 0.00816455 -0.000487754
RightFoot  3.87625 0.0129862 0.142951
RightToes  -19.7614 -0.0801327 -0.174901
Spine  -4.20891 0.9692 -1.85926
Spine1  -8.44494 1.85433 -3.03181
HEad  -57.7076 -6.09563 14.3973
LeftShoulder1  -1.94126e-019 -3.10601e-018 -2.51263e-017
LeftArm  -7.8951 25.1427 -78.2766
LeftForeArm  33.8763 -18.0865 -3.11247
LeftHand  -0.35976 -1.01817 6.6525
RightShoulder  -4.96962e-017 0 -2.36833e-017
RightArm  -74.483 9.36236 6.72723
RightForeArm  167.444 43.253 170.224
RightHand  -0.336232 -0.809684 -8.48084
LeftUpLeg  -5.58208 -2.58903 -3.02535
LeftLeg  1.63857 12.5008 -0.442672
LeftFoot  3.60327 -0.0225591 0.946122
LeftToes  -7.61846 1.48347e-006 1.01831e-007
89
root  -10.1019 34.8573 -18.2339 -170.873 -2.22771 -179.911
RightUpLeg  -3.96282 -17.0882 3.48748
RightLeg  -0.137069 -0.711854 0.0475257
RightFoot  3.76789 0.0164838 0.0955526
RightToes  -19.1421 -0.0775312 -0.169888
Spine  -4.12569 0.997552 -1.72616
Spine1  -8.27925 1.9091 -2.82275
HEad  -58.7358 -6.75612 14.1389
LeftShoulder1  -1.94126e-019 -3.10601e-018 -2.51263e-017
LeftArm  -8.89302 24.6331 -78.7955
LeftForeArm  34.7272 -16.1029 -2.75691
LeftHand  -0.374197 -1.07972 6.85418
RightShoulder  -4.96962e-017 0 -2.36833e-017
RightArm  -74.8847 7.80958 4.90102
RightForeArm  167.333 43.1179 170.264
RightHand  -0.318768 -0.609267 -7.71959
LeftUpLeg  -4.72785 -4.29231 -2.95058
LeftLeg  0.501813 14.0659 -0.773677
LeftFoot  3.83156 -0.0300062 1.10333
LeftToes  -6.84083 1.48347e-006 1.01831e-007
